<svg width="50" height="46" viewBox="0 0 50 46" fill="none" xmlns="http://www.w3.org/2000/svg">
<style>path{fill:#000}@media(prefers-color-scheme:dark){path{fill:#fff}}</style>
<path fill-rule="evenodd" clip-rule="evenodd" d="M6.73654 39.2635C15.7186 48.2455 30.2814 48.2455 39.2635 39.2635L30.5896 30.5896C26.398 34.7812 19.602 34.7812 15.4104 30.5896C11.2188 26.398 11.2188 19.602 15.4104 15.4104C19.602 11.2188 26.398 11.2188 30.5896 15.4104L39.2635 6.73654C30.2814 -2.24552 15.7186 -2.24552 6.73654 6.73654C-2.24552 15.7186 -2.24552 30.2814 6.73654 39.2635ZM42.4858 20.7544H40.4555V21.6772V22.7715V23.6416H42.4858C43.1362 23.6416 43.6987 23.7427 44.1733 23.9448C44.6479 24.147 45.0126 24.4634 45.2675 24.894C45.5224 25.3159 45.6498 25.8784 45.6498 26.5815C45.6498 27.1265 45.5312 27.6055 45.2939 28.0186C45.0654 28.4228 44.7314 28.7393 44.2919 28.9678C43.8613 29.1875 43.3427 29.2974 42.7363 29.2974C42.2001 29.2974 41.7123 29.1875 41.2729 28.9678C40.8422 28.748 40.5038 28.4448 40.2578 28.0581C40.0117 27.6714 39.8886 27.2319 39.8886 26.7397H36.0786C36.0786 27.689 36.2631 28.5107 36.6323 29.2051C37.0102 29.8906 37.5112 30.4619 38.1352 30.9189C38.768 31.3672 39.4711 31.7056 40.2446 31.9341C41.0268 32.1538 41.8222 32.2637 42.6308 32.2637C43.6064 32.2637 44.5073 32.1406 45.3334 31.8945C46.1596 31.6396 46.8803 31.2705 47.4955 30.7871C48.1196 30.3037 48.603 29.7148 48.9457 29.0205C49.2885 28.3174 49.4599 27.5176 49.4599 26.6211C49.4599 25.8916 49.3237 25.228 49.0512 24.6304C48.7788 24.0239 48.3745 23.501 47.8383 23.0615C47.3788 22.6773 46.8257 22.3706 46.1789 22.1414C46.684 21.9068 47.1273 21.6246 47.5087 21.2949C48.0361 20.8379 48.4404 20.3281 48.7216 19.7656C49.0029 19.1943 49.1435 18.6055 49.1435 17.999C49.1435 16.8037 48.871 15.8018 48.3261 14.9932C47.7812 14.1846 47.0209 13.5737 46.0454 13.1606C45.0698 12.7388 43.9316 12.5278 42.6308 12.5278C41.4794 12.5278 40.4247 12.7476 39.4667 13.187C38.5087 13.6265 37.7441 14.2373 37.1728 15.0195C36.6103 15.8018 36.329 16.7202 36.329 17.7749H40.1391C40.1391 17.3003 40.2578 16.896 40.4951 16.562C40.7324 16.228 41.0488 15.9687 41.4443 15.7842C41.8398 15.5996 42.2705 15.5073 42.7363 15.5073C43.3251 15.5073 43.8129 15.6172 44.1996 15.8369C44.5864 16.0478 44.872 16.3467 45.0566 16.7334C45.2499 17.1113 45.3466 17.5464 45.3466 18.0386C45.3466 18.5835 45.2412 19.0625 45.0302 19.4756C44.8281 19.8799 44.5161 20.1963 44.0942 20.4248C43.6723 20.6445 43.1362 20.7544 42.4858 20.7544Z" />
</svg>
