<svg width="356" height="192" viewBox="0 0 356 192" fill="none" xmlns="http://www.w3.org/2000/svg">
<path d="M143.889 40.5769L143.485 39.55L160.231 31.9018L160.995 33.8405C168.612 53.1835 170.313 73.6263 165.786 91.4017C160.982 110.263 149.81 124.009 134.327 130.105L125.775 133.474L119.039 116.368L127.592 112.999C137.427 109.127 144.665 99.8451 147.97 86.8644C151.553 72.7974 150.104 56.3585 143.889 40.5769Z" fill="#684DD9"/>
<path d="M148.11 41.6492C140.033 41.6477 132.05 35.9799 128.245 27.5441C128.006 27.0154 127.78 26.4687 127.575 25.9204L127.327 25.2588L134.698 22.1541L135.005 22.7722C138.709 30.2296 143.755 35.6424 147.002 35.6424C147.343 35.6424 147.66 35.5765 147.944 35.4491C150.877 34.1266 150.517 26.1601 147.142 17.6921L146.874 17.0229L162.621 10.3883L162.926 11.013C163.045 11.2545 163.158 11.4985 163.27 11.7451C165.735 17.2105 166.244 23.1662 164.708 28.5193C163.157 33.9162 159.716 38.0555 155.017 40.175C152.849 41.1531 150.525 41.6492 148.113 41.6492H148.11Z" fill="#684DD9"/>
<path d="M162.264 11.3355C162.38 11.5706 162.491 11.8088 162.6 12.0482C167.547 23.0162 164.016 35.3089 154.715 39.504C152.595 40.4603 150.36 40.9129 148.111 40.9129C140.493 40.9129 132.735 35.7097 128.916 27.2417C128.68 26.7181 128.462 26.1912 128.265 25.6622L134.347 23.0995C138.255 30.9661 143.454 36.3775 147.003 36.3775C147.445 36.3775 147.862 36.2931 148.247 36.1196C151.68 34.5702 151.419 26.4367 147.825 17.4209L162.264 11.3355ZM147.824 17.4201L147.824 17.4209L147.824 17.4216V17.4201ZM162.977 9.44025L161.694 9.98016L148.628 15.4861L146.845 16.2375L145.924 16.6253L146.172 17.2467L146.993 19.3708C149.899 27.3924 149.733 33.8347 147.642 34.7784C147.452 34.8646 147.243 34.9066 147.003 34.9066C144.507 34.9066 139.685 30.5391 135.664 22.4452L135.05 21.2071L133.776 21.7441L127.694 24.3072L126.392 24.855L126.887 26.1778C127.098 26.742 127.329 27.3029 127.575 27.8475C129.533 32.1878 132.53 35.8568 136.244 38.4578C139.913 41.0263 144.016 42.3842 148.111 42.3842C150.629 42.3842 153.054 41.866 155.319 40.8452C160.217 38.636 163.803 34.3304 165.414 28.7228C167 23.2016 166.476 17.0656 163.94 11.4438C163.826 11.1885 163.707 10.9379 163.586 10.6899L162.977 9.44025Z" fill="white"/>
<path d="M10.463 75.9539L16.2919 61.2931L87.0622 32.9103L107.895 84.8554L102.066 99.5166L31.2961 127.9L10.463 75.9539Z" fill="#684DD9"/>
<path d="M59.5467 73.1237C59.5467 78.412 55.0203 82.699 49.438 82.699C43.8553 82.699 39.3289 78.412 39.3289 73.1237C39.3289 67.8354 43.8553 63.548 49.438 63.548C55.0203 63.548 59.5467 67.8354 59.5467 73.1237Z" fill="white"/>
<path d="M97.9426 78.4529C98.1766 78.9635 97.7616 79.6479 97.0142 79.9796C82.9102 86.2307 68.3146 91.8989 53.2637 96.9232C52.4656 97.1897 51.6595 96.9728 51.4651 96.443C50.7695 94.5448 50.0822 92.6441 49.4032 90.7437C49.2135 90.2129 49.7012 89.5716 50.4888 89.3098C65.3601 84.3651 79.7791 78.7831 93.7074 72.6232C94.4454 72.2966 95.2272 72.4458 95.4571 72.9578C96.2762 74.7916 97.1058 76.6231 97.9426 78.4529Z" fill="white"/>
<path d="M91.5405 61.1008C91.5405 66.3895 87.0141 70.6762 81.4314 70.6762C75.8487 70.6762 71.3223 66.3895 71.3223 61.1008C71.3223 55.8125 75.8487 51.5255 81.4314 51.5255C87.0141 51.5255 91.5405 55.8125 91.5405 61.1008Z" fill="white"/>
<path d="M86.5593 34.0876L106.92 84.8569L101.369 98.8214L31.7995 126.723L11.4382 75.9525L16.9898 61.9887L86.5593 34.0876ZM87.5656 31.7331L85.8847 32.407L16.3155 60.3082L15.5942 60.5975L15.307 61.3195L9.75546 75.2837L9.48859 75.9554L9.75764 76.6268L30.1189 127.397L30.7931 129.077L32.4733 128.403L102.043 100.502L102.764 100.212L103.051 99.4899L108.603 85.5261L108.87 84.854L108.601 84.1826L88.2391 33.4137L87.5656 31.7331Z" fill="white"/>
<path d="M84.1338 101.764C85.0492 101.764 85.6337 101.94 85.7818 102.312L86.867 105.046C87.3917 106.367 82.232 109.656 75.3435 112.391C70.396 114.355 65.9014 115.501 63.5676 115.501C62.6515 115.501 62.0677 115.324 61.9196 114.951L60.8344 112.218C60.31 110.896 65.4691 107.608 72.3575 104.873C77.3051 102.909 81.7989 101.764 84.1338 101.764ZM84.1338 100.293C81.5273 100.293 76.8068 101.524 71.8151 103.506C68.3996 104.862 65.2782 106.399 63.0259 107.835C60.9774 109.141 58.7214 110.881 59.4678 112.76L60.553 115.495C60.9426 116.474 61.9562 116.972 63.5676 116.972C66.1745 116.972 70.8942 115.74 75.886 113.759C79.3014 112.401 82.4225 110.863 84.6759 109.429C86.724 108.123 88.9803 106.383 88.2333 104.504L87.1484 101.77C86.7595 100.79 85.7449 100.293 84.1338 100.293Z" fill="white"/>
<path d="M64.2918 116.598C63.8145 116.598 62.3628 116.598 61.9609 115.585L60.8753 112.851C59.6883 109.862 71.4642 105.086 72.8105 104.552C77.7215 102.602 82.3377 101.39 84.858 101.39C85.3342 101.39 86.7866 101.39 87.1893 102.403L88.2742 105.137C89.4608 108.126 77.6845 112.902 76.3389 113.437C71.428 115.386 66.8121 116.598 64.2918 116.598Z" fill="#684DD9"/>
<path d="M85.8977 106.206C86.8131 106.206 87.3975 106.382 87.5453 106.755L88.6305 109.488C89.1552 110.81 83.9962 114.099 77.107 116.833C72.1594 118.797 67.6653 119.943 65.3311 119.943C64.4157 119.943 63.8316 119.767 63.6838 119.393L62.5982 116.661C62.0739 115.338 67.2333 112.05 74.1214 109.316C79.0697 107.351 83.5635 106.206 85.8977 106.206ZM85.8977 104.735C83.2915 104.735 78.5717 105.966 73.5786 107.948C70.1635 109.304 67.0421 110.842 64.7897 112.278C62.7409 113.583 60.4849 115.323 61.2309 117.202L62.3169 119.937C62.7058 120.917 63.7197 121.414 65.3307 121.414C67.9372 121.414 72.6574 120.182 77.6498 118.2C81.0649 116.844 84.1859 115.307 86.4394 113.871C88.4875 112.565 90.7435 110.825 89.9975 108.946L88.9112 106.211C88.523 105.232 87.5094 104.735 85.8977 104.735Z" fill="white"/>
<path d="M65.3311 120.678C64.8542 120.678 63.4025 120.678 63.0005 119.665L61.9149 116.932C60.7282 113.941 72.5042 109.167 73.8501 108.632C78.7618 106.682 83.3781 105.471 85.898 105.471C86.3749 105.471 87.8266 105.471 88.2289 106.484L89.3145 109.218C90.5012 112.208 78.7256 116.982 77.3793 117.517C72.4672 119.467 67.851 120.678 65.3311 120.678Z" fill="#684DD9"/>
<path d="M66.9606 124.778C66.483 124.778 65.0305 124.778 64.6289 123.766L63.5433 121.033C62.3563 118.043 74.1322 113.268 75.4786 112.732C80.3899 110.783 85.0054 109.571 87.5257 109.571C88.0026 109.571 89.4547 109.571 89.8566 110.584L90.9422 113.319C92.1296 116.307 80.3533 121.083 79.0074 121.618C74.096 123.567 69.4805 124.778 66.9606 124.778Z" fill="#684DD9"/>
<path d="M87.5257 110.307C88.4411 110.307 89.0256 110.483 89.1733 110.856L90.2589 113.589C90.7836 114.911 85.6239 118.199 78.7358 120.935C73.7879 122.899 69.2948 124.044 66.9606 124.044C66.0441 124.044 65.46 123.868 65.3119 123.495L64.2266 120.761C63.7019 119.439 68.8613 116.151 75.7502 113.416C80.6977 111.452 85.1922 110.307 87.5257 110.307ZM87.5257 108.836C84.9196 108.836 80.1991 110.068 75.207 112.049C71.7919 113.406 68.6701 114.943 66.4178 116.379C64.3693 117.685 62.1137 119.425 62.8597 121.304L63.9449 124.038C64.3342 125.018 65.3488 125.514 66.9606 125.514C69.5667 125.514 74.2869 124.283 79.2789 122.302C82.6944 120.946 85.8154 119.408 88.0678 117.972C90.1159 116.666 92.3719 114.927 91.6259 113.047L90.5403 110.313C90.1514 109.333 89.1371 108.836 87.5257 108.836Z" fill="white"/>
<path d="M22.7274 162.609L36.3682 133.161L123.514 98.2753L159.634 188.502L145.993 217.952L58.8453 252.837L22.7274 162.609Z" fill="#684DD9"/>
<path d="M135.882 154.57C136.274 155.554 135.061 156.961 133.174 157.716L71.2824 182.451C69.3954 183.205 67.5476 183.02 67.155 182.037L52.1813 144.574C51.7891 143.591 53.0007 142.182 54.8884 141.428L116.781 116.692C118.668 115.939 120.516 116.124 120.909 117.107L135.882 154.57Z" fill="white"/>
<path d="M123.105 99.2313L158.832 188.481L145.448 217.377L59.2548 251.88L23.5277 162.63L36.9128 133.735L123.105 99.2313ZM123.924 97.3193L122.558 97.8658L36.3657 132.369L35.8232 132.587L35.5777 133.117L22.1933 162.012L21.9264 162.588L22.1618 163.178L57.889 252.428L58.4354 253.793L59.8009 253.247L145.995 218.743L146.536 218.525L146.783 217.996L160.167 189.1L160.435 188.524L160.198 187.935L124.47 98.6849L123.924 97.3193Z" fill="white"/>
<path d="M4.50879 252.581C-9.37317 209.399 1.5344 168.571 29.3418 159.631L32.1311 158.733C32.3281 158.67 32.5356 158.638 32.7471 158.638C35.241 158.638 37.7595 162.941 39.045 166.938C40.5542 171.635 40.7516 176.818 38.2081 177.636L35.4188 178.534C25.6193 181.683 21.5687 193.46 20.0264 200.199C16.9419 213.674 18.1438 230.118 23.4118 246.505L24.1541 248.817L4.9484 253.948L4.50879 252.581Z" fill="#684DD9"/>
<path d="M32.7471 159.374C34.4881 159.374 36.9027 162.678 38.3446 167.164C39.8978 171.998 39.7359 176.373 37.9825 176.936L35.1935 177.833C25.0486 181.095 20.8865 193.143 19.3098 200.036C16.1956 213.636 17.4037 230.219 22.7111 246.73L23.2181 248.306L5.434 253.057L5.20877 252.356C-8.54681 209.566 2.15253 169.143 29.5667 160.33C29.5667 160.33 32.3564 159.434 32.356 159.434C32.482 159.393 32.6128 159.374 32.7471 159.374ZM32.7471 157.903C32.4589 157.903 32.1761 157.947 31.9059 158.034L31.9027 158.035C31.9012 158.036 31.8983 158.037 31.8936 158.038L31.177 158.268C30.3514 158.534 29.1173 158.93 29.1173 158.931C15.3642 163.352 5.21058 175.532 0.527375 193.226C-4.09464 210.688 -2.92899 231.847 3.8092 252.806L4.03372 253.508L4.46173 254.84L5.81386 254.478L23.5969 249.727L25.0909 249.328L24.6184 247.856L24.1114 246.281C18.8836 230.017 17.6872 213.711 20.7438 200.364C22.2505 193.776 26.1903 182.272 35.6436 179.234L38.4326 178.337C41.5761 177.326 41.3158 171.603 39.7442 166.714C38.3349 162.329 35.6241 157.903 32.7471 157.903Z" fill="white"/>
<path fill-rule="evenodd" clip-rule="evenodd" d="M229.986 101.858C245.967 117.839 271.877 117.839 287.858 101.858L272.426 86.4256C264.968 93.8834 252.876 93.8834 245.418 86.4256C237.961 78.9678 237.961 66.8763 245.418 59.4185C252.876 51.9606 264.968 51.9606 272.426 59.4185L287.858 43.9858C271.877 28.0047 245.967 28.0047 229.986 43.9858C214.005 59.9668 214.005 85.8772 229.986 101.858ZM293.592 69.3422H289.979V70.9842V72.9311V74.4792H293.592C294.749 74.4792 295.75 74.659 296.594 75.0187C297.438 75.3784 298.087 75.9413 298.541 76.7076C298.994 77.4582 299.221 78.459 299.221 79.71C299.221 80.6795 299.01 81.5318 298.588 82.2668C298.181 82.9861 297.587 83.5491 296.805 83.9556C296.039 84.3466 295.116 84.542 294.037 84.542C293.083 84.542 292.215 84.3466 291.434 83.9556C290.667 83.5647 290.065 83.0252 289.627 82.3371C289.19 81.6491 288.971 80.8672 288.971 79.9915H282.192C282.192 81.6804 282.52 83.1425 283.177 84.3778C283.849 85.5976 284.741 86.614 285.851 87.4272C286.977 88.2247 288.228 88.8268 289.604 89.2333C290.996 89.6243 292.411 89.8198 293.85 89.8198C295.585 89.8198 297.188 89.6008 298.658 89.163C300.128 88.7095 301.41 88.0527 302.505 87.1926C303.615 86.3326 304.475 85.2848 305.085 84.0495C305.695 82.7984 306 81.3754 306 79.7804C306 78.4824 305.758 77.3018 305.273 76.2384C304.788 75.1594 304.069 74.229 303.115 73.4471C302.297 72.7636 301.313 72.2179 300.162 71.81C301.061 71.3926 301.85 70.8906 302.528 70.3039C303.467 69.4908 304.186 68.5838 304.686 67.583C305.187 66.5665 305.437 65.5188 305.437 64.4398C305.437 62.3131 304.952 60.5304 303.983 59.0917C303.013 57.6531 301.661 56.5663 299.925 55.8313C298.189 55.0807 296.164 54.7054 293.85 54.7054C291.801 54.7054 289.924 55.0963 288.22 55.8782C286.515 56.6601 285.155 57.7469 284.139 59.1387C283.138 60.5304 282.637 62.1645 282.637 64.0411H289.416C289.416 63.1966 289.627 62.4773 290.05 61.8831C290.472 61.2888 291.035 60.8275 291.738 60.4991C292.442 60.1707 293.208 60.0065 294.037 60.0065C295.085 60.0065 295.953 60.202 296.641 60.593C297.329 60.9683 297.837 61.4999 298.166 62.188C298.51 62.8604 298.682 63.6345 298.682 64.5102C298.682 65.4797 298.494 66.332 298.119 67.067C297.759 67.7863 297.204 68.3492 296.453 68.7558C295.703 69.1468 294.749 69.3422 293.592 69.3422Z" fill="#151515"/>
<path d="M150.889 42.5769L150.485 41.55L167.231 33.9018L167.995 35.8405C175.612 55.1835 177.313 75.6263 172.786 93.4017C167.982 112.263 156.81 126.009 141.327 132.105L132.775 135.474L126.039 118.368L134.592 114.999C144.427 111.127 151.665 101.845 154.97 88.8644C158.553 74.7974 157.104 58.3585 150.889 42.5769Z" fill="#151515"/>
<path d="M150.889 42.9391L150.485 41.9121L167.231 34.2639L167.995 36.2027C175.612 55.5457 177.313 75.9884 172.786 93.7638C167.982 112.625 156.81 126.371 141.327 132.468L132.775 135.836L126.039 118.73L134.592 115.361C144.427 111.489 151.665 102.207 154.97 89.2265C158.553 75.1595 157.104 58.7207 150.889 42.9391Z" stroke="white" stroke-width="1.81057" stroke-miterlimit="10"/>
<path d="M155.11 43.6492C147.033 43.6477 139.05 37.9799 135.245 29.5441C135.006 29.0154 134.78 28.4687 134.575 27.9204L134.327 27.2588L141.698 24.1541L142.005 24.7722C145.709 32.2296 150.755 37.6424 154.002 37.6424C154.343 37.6424 154.66 37.5765 154.944 37.4491C157.877 36.1266 157.517 28.1601 154.142 19.6921L153.874 19.0229L169.621 12.3883L169.926 13.013C170.045 13.2545 170.158 13.4985 170.27 13.7451C172.735 19.2105 173.244 25.1662 171.708 30.5193C170.157 35.9162 166.716 40.0555 162.017 42.175C159.849 43.1531 157.525 43.6492 155.113 43.6492H155.11Z" fill="#151515"/>
<path d="M169.264 13.3355C169.38 13.5706 169.491 13.8088 169.6 14.0482C174.547 25.0162 171.016 37.3089 161.715 41.504C159.595 42.4603 157.36 42.9129 155.111 42.9129C147.493 42.9129 139.735 37.7097 135.916 29.2417C135.68 28.7181 135.462 28.1912 135.265 27.6622L141.347 25.0995C145.255 32.9661 150.454 38.3775 154.003 38.3775C154.445 38.3775 154.862 38.2931 155.247 38.1196C158.68 36.5702 158.419 28.4367 154.825 19.4209L169.264 13.3355ZM154.824 19.4201L154.824 19.4209L154.824 19.4216V19.4201ZM169.977 11.4402L168.694 11.9802L155.628 17.4861L153.845 18.2375L152.924 18.6253L153.172 19.2467L153.993 21.3708C156.899 29.3924 156.733 35.8347 154.642 36.7784C154.452 36.8646 154.243 36.9066 154.003 36.9066C151.507 36.9066 146.685 32.5391 142.664 24.4452L142.05 23.2071L140.776 23.7441L134.694 26.3072L133.392 26.855L133.887 28.1778C134.098 28.742 134.329 29.3029 134.575 29.8475C136.533 34.1878 139.53 37.8568 143.244 40.4578C146.913 43.0263 151.016 44.3842 155.111 44.3842C157.629 44.3842 160.054 43.866 162.319 42.8452C167.217 40.636 170.803 36.3304 172.414 30.7228C174 25.2016 173.476 19.0656 170.94 13.4438C170.826 13.1885 170.707 12.9379 170.586 12.6899L169.977 11.4402Z" fill="white"/>
<path d="M17.463 77.9539L23.2919 63.2931L94.0622 34.9103L114.895 86.8554L109.066 101.517L38.2961 129.9L17.463 77.9539Z" fill="#151515"/>
<path d="M66.5467 75.1237C66.5467 80.412 62.0203 84.699 56.438 84.699C50.8553 84.699 46.3289 80.412 46.3289 75.1237C46.3289 69.8354 50.8553 65.548 56.438 65.548C62.0203 65.548 66.5467 69.8354 66.5467 75.1237Z" fill="white"/>
<path d="M104.943 80.4529C105.177 80.9635 104.762 81.6479 104.014 81.9796C89.9102 88.2307 75.3146 93.8989 60.2637 98.9232C59.4656 99.1897 58.6595 98.9728 58.4651 98.443C57.7695 96.5448 57.0822 94.6441 56.4032 92.7437C56.2135 92.2129 56.7012 91.5716 57.4888 91.3098C72.3601 86.3651 86.7791 80.7831 100.707 74.6232C101.445 74.2966 102.227 74.4458 102.457 74.9578C103.276 76.7916 104.106 78.6231 104.943 80.4529Z" fill="white"/>
<path d="M98.5405 63.1008C98.5405 68.3895 94.0141 72.6762 88.4314 72.6762C82.8487 72.6762 78.3223 68.3895 78.3223 63.1008C78.3223 57.8125 82.8487 53.5255 88.4314 53.5255C94.0141 53.5255 98.5405 57.8125 98.5405 63.1008Z" fill="white"/>
<path d="M93.5593 36.0876L113.92 86.8569L108.369 100.821L38.7995 128.723L18.4382 77.9525L23.9898 63.9887L93.5593 36.0876ZM94.5656 33.7331L92.8847 34.407L23.3155 62.3082L22.5942 62.5975L22.307 63.3195L16.7555 77.2837L16.4886 77.9554L16.7576 78.6268L37.1189 129.397L37.7931 131.077L39.4733 130.403L109.043 102.502L109.764 102.212L110.051 101.49L115.603 87.5261L115.87 86.854L115.601 86.1826L95.2391 35.4137L94.5656 33.7331Z" fill="white"/>
<path d="M91.1338 103.764C92.0492 103.764 92.6337 103.94 92.7818 104.312L93.867 107.046C94.3917 108.367 89.232 111.656 82.3435 114.391C77.396 116.355 72.9014 117.501 70.5676 117.501C69.6515 117.501 69.0677 117.324 68.9196 116.951L67.8344 114.218C67.31 112.896 72.4691 109.608 79.3575 106.873C84.3051 104.909 88.7989 103.764 91.1338 103.764ZM91.1338 102.293C88.5273 102.293 83.8068 103.524 78.8151 105.506C75.3996 106.862 72.2782 108.399 70.0259 109.835C67.9774 111.141 65.7214 112.881 66.4678 114.76L67.553 117.495C67.9426 118.474 68.9562 118.972 70.5676 118.972C73.1745 118.972 77.8942 117.74 82.886 115.759C86.3014 114.401 89.4225 112.863 91.6759 111.429C93.724 110.123 95.9803 108.383 95.2333 106.504L94.1484 103.77C93.7595 102.79 92.7449 102.293 91.1338 102.293Z" fill="white"/>
<path d="M71.2918 118.598C70.8145 118.598 69.3628 118.598 68.9609 117.585L67.8753 114.851C66.6883 111.862 78.4642 107.086 79.8105 106.552C84.7215 104.602 89.3377 103.39 91.858 103.39C92.3342 103.39 93.7866 103.39 94.1893 104.403L95.2742 107.137C96.4608 110.126 84.6845 114.902 83.3389 115.437C78.428 117.386 73.8121 118.598 71.2918 118.598Z" fill="#151515"/>
<path d="M92.8977 108.206C93.8131 108.206 94.3975 108.382 94.5453 108.755L95.6305 111.488C96.1552 112.81 90.9962 116.099 84.107 118.833C79.1594 120.797 74.6653 121.943 72.3311 121.943C71.4157 121.943 70.8316 121.767 70.6838 121.393L69.5982 118.661C69.0739 117.338 74.2333 114.05 81.1214 111.316C86.0696 109.351 90.5635 108.206 92.8977 108.206ZM92.8977 106.735C90.2915 106.735 85.5717 107.966 80.5786 109.948C77.1635 111.304 74.0421 112.842 71.7897 114.278C69.7409 115.583 67.4849 117.323 68.2309 119.202L69.3169 121.937C69.7058 122.917 70.7197 123.414 72.3307 123.414C74.9372 123.414 79.6574 122.182 84.6498 120.2C88.0649 118.844 91.1859 117.307 93.4394 115.871C95.4875 114.565 97.7435 112.825 96.9975 110.946L95.9112 108.211C95.523 107.232 94.5094 106.735 92.8977 106.735Z" fill="white"/>
<path d="M72.3311 122.678C71.8542 122.678 70.4025 122.678 70.0005 121.665L68.9149 118.932C67.7282 115.941 79.5042 111.167 80.8501 110.632C85.7618 108.682 90.3781 107.471 92.898 107.471C93.3749 107.471 94.8266 107.471 95.2289 108.484L96.3145 111.218C97.5012 114.208 85.7256 118.982 84.3793 119.517C79.4672 121.467 74.851 122.678 72.3311 122.678Z" fill="#151515"/>
<path d="M73.9606 126.778C73.483 126.778 72.0305 126.778 71.6289 125.766L70.5433 123.033C69.3563 120.043 81.1322 115.268 82.4786 114.732C87.3899 112.783 92.0054 111.571 94.5257 111.571C95.0026 111.571 96.4547 111.571 96.8566 112.584L97.9422 115.319C99.1296 118.307 87.3533 123.083 86.0074 123.618C81.096 125.567 76.4805 126.778 73.9606 126.778Z" fill="#151515"/>
<path d="M94.5257 112.307C95.4411 112.307 96.0256 112.483 96.1733 112.856L97.2589 115.589C97.7836 116.911 92.6239 120.199 85.7358 122.935C80.7879 124.899 76.2948 126.044 73.9606 126.044C73.0441 126.044 72.46 125.868 72.3119 125.495L71.2266 122.761C70.7019 121.439 75.8613 118.151 82.7502 115.416C87.6977 113.452 92.1922 112.307 94.5257 112.307ZM94.5257 110.836C91.9196 110.836 87.1991 112.068 82.207 114.049C78.7919 115.406 75.6701 116.943 73.4178 118.379C71.3693 119.685 69.1137 121.425 69.8597 123.304L70.9449 126.038C71.3342 127.018 72.3488 127.514 73.9606 127.514C76.5667 127.514 81.2869 126.283 86.2789 124.302C89.6944 122.946 92.8154 121.408 95.0678 119.972C97.1159 118.666 99.3719 116.927 98.6259 115.047L97.5403 112.313C97.1514 111.333 96.1371 110.836 94.5257 110.836Z" fill="white"/>
<path d="M29.7274 164.609L43.3682 135.161L130.514 100.275L166.634 190.502L152.993 219.952L65.8453 254.837L29.7274 164.609Z" fill="#151515"/>
<path d="M142.882 156.57C143.274 157.554 142.061 158.961 140.174 159.716L78.2824 184.451C76.3954 185.205 74.5476 185.02 74.155 184.037L59.1813 146.574C58.7891 145.591 60.0007 144.182 61.8884 143.428L123.781 118.692C125.668 117.939 127.516 118.124 127.909 119.107L142.882 156.57Z" fill="white"/>
<path d="M130.105 101.231L165.832 190.481L152.448 219.377L66.2548 253.88L30.5277 164.63L43.9128 135.735L130.105 101.231ZM130.924 99.3193L129.558 99.8658L43.3657 134.369L42.8232 134.587L42.5777 135.117L29.1933 164.012L28.9264 164.588L29.1618 165.178L64.8889 254.428L65.4354 255.793L66.8009 255.247L152.995 220.743L153.536 220.525L153.783 219.996L167.167 191.1L167.435 190.524L167.198 189.935L131.47 100.685L130.924 99.3193Z" fill="white"/>
<path d="M11.5088 254.581C-2.37317 211.399 8.5344 170.571 36.3418 161.631L39.1311 160.733C39.3281 160.67 39.5356 160.638 39.7471 160.638C42.241 160.638 44.7595 164.941 46.045 168.938C47.5542 173.635 47.7516 178.818 45.2081 179.636L42.4188 180.534C32.6193 183.683 28.5687 195.46 27.0264 202.199C23.9419 215.674 25.1438 232.118 30.4118 248.505L31.1541 250.817L11.9484 255.948L11.5088 254.581Z" fill="#151515"/>
<path d="M39.7471 161.374C41.4881 161.374 43.9027 164.678 45.3446 169.164C46.8978 173.998 46.7359 178.373 44.9825 178.936L42.1935 179.833C32.0486 183.095 27.8865 195.143 26.3098 202.036C23.1956 215.636 24.4037 232.219 29.7111 248.73L30.2181 250.306L12.434 255.057L12.2088 254.356C-1.54681 211.566 9.15253 171.143 36.5667 162.33C36.5667 162.33 39.3564 161.434 39.356 161.434C39.482 161.393 39.6128 161.374 39.7471 161.374ZM39.7471 159.903C39.4589 159.903 39.1761 159.947 38.9059 160.034L38.9027 160.035C38.9012 160.036 38.8983 160.037 38.8936 160.038L38.177 160.268C37.3514 160.534 36.1173 160.93 36.1173 160.931C22.3642 165.352 12.2106 177.532 7.52738 195.226C2.90536 212.688 4.07101 233.847 10.8092 254.806L11.0337 255.508L11.4617 256.84L12.8139 256.478L30.5969 251.727L32.0909 251.328L31.6184 249.856L31.1114 248.281C25.8836 232.017 24.6872 215.711 27.7438 202.364C29.2505 195.776 33.1903 184.272 42.6436 181.234L45.4326 180.337C48.5761 179.326 48.3158 173.603 46.7442 168.714C45.3349 164.329 42.6241 159.903 39.7471 159.903Z" fill="white"/>
<path d="M168.952 136.64V129.56C168.952 127.32 170.072 126.2 172.312 126.2H177.652L178.992 127.24V128.8H172.432C172.032 128.8 171.832 129 171.832 129.4V136.8C171.832 137.2 172.032 137.4 172.432 137.4H178.992V138.96L177.652 140H172.312C170.072 140 168.952 138.88 168.952 136.64ZM184.112 140C181.952 140 180.872 138.94 180.872 136.82C180.872 134.7 181.952 133.64 184.112 133.64H186.872V132.48C186.872 132.053 186.659 131.84 186.232 131.84H181.992V130.34L183.192 129.44H186.392C188.552 129.44 189.632 130.52 189.632 132.68V140H184.112ZM183.632 136.96C183.632 137.387 183.846 137.6 184.272 137.6H186.872V135.76H184.272C183.846 135.76 183.632 135.973 183.632 136.4V136.96ZM192.428 144V129.44H198.268C200.428 129.44 201.508 130.52 201.508 132.68V136.76C201.508 138.92 200.428 140 198.268 140H195.188V144H192.428ZM195.188 137.6H198.108C198.535 137.6 198.748 137.387 198.748 136.96V132.48C198.748 132.053 198.535 131.84 198.108 131.84H195.188V137.6ZM204.225 140V129.44H206.985V140H204.225ZM203.905 127.22L206.665 124.08L208.165 125.5L205.205 128.48L203.905 127.22ZM209.79 136.76V126.2H212.55V129.44H215.99V131.84H212.55V136.96C212.55 137.387 212.763 137.6 213.19 137.6H216.19V139.1L214.99 140H213.03C210.87 140 209.79 138.92 209.79 136.76ZM218.266 136.76V129.44H221.026V136.96C221.026 137.387 221.24 137.6 221.666 137.6H224.586V129.44H227.346V140H221.506C219.346 140 218.266 138.92 218.266 136.76ZM230.141 136.16V125.2H232.901V136.44C232.901 137.267 233.328 137.727 234.181 137.82V140.2C231.488 140.2 230.141 138.853 230.141 136.16ZM236.253 136.76V132.68C236.253 130.52 237.333 129.44 239.493 129.44H242.293C244.453 129.44 245.533 130.52 245.533 132.68V136.76C245.533 138.92 244.453 140 242.293 140H239.493C237.333 140 236.253 138.92 236.253 136.76ZM239.013 136.96C239.013 137.387 239.226 137.6 239.653 137.6H242.133C242.559 137.6 242.773 137.387 242.773 136.96V132.48C242.773 132.053 242.559 131.84 242.133 131.84H239.653C239.226 131.84 239.013 132.053 239.013 132.48V136.96ZM252.893 136.76V132.68C252.893 130.52 253.973 129.44 256.133 129.44H259.213V125.2H261.973V140H256.133C253.973 140 252.893 138.92 252.893 136.76ZM255.653 136.96C255.653 137.387 255.867 137.6 256.293 137.6H259.213V131.84H256.293C255.867 131.84 255.653 132.053 255.653 132.48V136.96ZM264.69 136.76V132.68C264.69 130.52 265.77 129.44 267.93 129.44H270.53C272.69 129.44 273.77 130.52 273.77 132.68V135.74H267.45V136.96C267.45 137.387 267.663 137.6 268.09 137.6H273.37V139.1L272.17 140H267.93C265.77 140 264.69 138.92 264.69 136.76ZM267.45 133.62H271.01V132.48C271.01 132.053 270.797 131.84 270.37 131.84H268.09C267.663 131.84 267.45 132.053 267.45 132.48V133.62ZM281.295 136.64V129.56C281.295 127.32 282.415 126.2 284.655 126.2H289.995L291.335 127.24V128.8H284.775C284.375 128.8 284.175 129 284.175 129.4V136.8C284.175 137.2 284.375 137.4 284.775 137.4H291.335V138.96L289.995 140H284.655C282.415 140 281.295 138.88 281.295 136.64ZM293.716 127.7V125H296.596V127.7H293.716ZM293.776 140V129.44H296.536V140H293.776ZM299.26 136.76V132.68C299.26 130.52 300.34 129.44 302.5 129.44H305.1C307.26 129.44 308.34 130.52 308.34 132.68V135.74H302.02V136.96C302.02 137.387 302.234 137.6 302.66 137.6H307.94V139.1L306.74 140H302.5C300.34 140 299.26 138.92 299.26 136.76ZM302.02 133.62H305.58V132.48C305.58 132.053 305.367 131.84 304.94 131.84H302.66C302.234 131.84 302.02 132.053 302.02 132.48V133.62ZM311.061 140V129.44H316.901C319.061 129.44 320.141 130.52 320.141 132.68V140H317.381V132.48C317.381 132.053 317.168 131.84 316.741 131.84H313.821V140H311.061ZM322.776 136.76V132.68C322.776 130.52 323.856 129.44 326.016 129.44H329.736L330.936 130.34V131.84H326.176C325.749 131.84 325.536 132.053 325.536 132.48V136.96C325.536 137.387 325.749 137.6 326.176 137.6H330.936V139.1L329.736 140H326.016C323.856 140 322.776 138.92 322.776 136.76ZM333.228 127.7V125H336.108V127.7H333.228ZM333.288 140V129.44H336.048V140H333.288ZM341.612 140C339.452 140 338.372 138.94 338.372 136.82C338.372 134.7 339.452 133.64 341.612 133.64H344.372V132.48C344.372 132.053 344.159 131.84 343.732 131.84H339.492V130.34L340.692 129.44H343.892C346.052 129.44 347.132 130.52 347.132 132.68V140H341.612ZM341.132 136.96C341.132 137.387 341.346 137.6 341.772 137.6H344.372V135.76H341.772C341.346 135.76 341.132 135.973 341.132 136.4V136.96ZM171.536 156.76V152.68C171.536 150.52 172.616 149.44 174.776 149.44H177.856V145.2H180.616V160H174.776C172.616 160 171.536 158.92 171.536 156.76ZM174.296 156.96C174.296 157.387 174.509 157.6 174.936 157.6H177.856V151.84H174.936C174.509 151.84 174.296 152.053 174.296 152.48V156.96ZM183.333 156.76V152.68C183.333 150.52 184.413 149.44 186.573 149.44H189.173C191.333 149.44 192.413 150.52 192.413 152.68V155.74H186.093V156.96C186.093 157.387 186.306 157.6 186.733 157.6H192.013V159.1L190.813 160H186.573C184.413 160 183.333 158.92 183.333 156.76ZM186.093 153.62H189.653V152.48C189.653 152.053 189.439 151.84 189.013 151.84H186.733C186.306 151.84 186.093 152.053 186.093 152.48V153.62ZM199.858 156.16V145.2H202.618V156.44C202.618 157.267 203.045 157.727 203.898 157.82V160.2C201.205 160.2 199.858 158.853 199.858 156.16ZM208.809 160C206.649 160 205.569 158.94 205.569 156.82C205.569 154.7 206.649 153.64 208.809 153.64H211.569V152.48C211.569 152.053 211.356 151.84 210.929 151.84H206.689V150.34L207.889 149.44H211.089C213.249 149.44 214.329 150.52 214.329 152.68V160H208.809ZM208.329 156.96C208.329 157.387 208.543 157.6 208.969 157.6H211.569V155.76H208.969C208.543 155.76 208.329 155.973 208.329 156.4V156.96ZM221.93 156.64V149.56C221.93 147.32 223.05 146.2 225.29 146.2H230.63L231.97 147.24V148.8H225.41C225.01 148.8 224.81 149 224.81 149.4V156.8C224.81 157.2 225.01 157.4 225.41 157.4H231.97V158.96L230.63 160H225.29C223.05 160 221.93 158.88 221.93 156.64ZM234.251 156.76V152.68C234.251 150.52 235.331 149.44 237.491 149.44H240.291C242.451 149.44 243.531 150.52 243.531 152.68V156.76C243.531 158.92 242.451 160 240.291 160H237.491C235.331 160 234.251 158.92 234.251 156.76ZM237.011 156.96C237.011 157.387 237.224 157.6 237.651 157.6H240.131C240.557 157.6 240.771 157.387 240.771 156.96V152.48C240.771 152.053 240.557 151.84 240.131 151.84H237.651C237.224 151.84 237.011 152.053 237.011 152.48V156.96ZM246.247 160V149.44H258.287C260.447 149.44 261.527 150.52 261.527 152.68V160H258.767V152.48C258.767 152.053 258.553 151.84 258.127 151.84H255.267V160H252.507V151.84H249.007V160H246.247ZM264.333 164V149.44H270.173C272.333 149.44 273.413 150.52 273.413 152.68V156.76C273.413 158.92 272.333 160 270.173 160H267.093V164H264.333ZM267.093 157.6H270.013C270.439 157.6 270.653 157.387 270.653 156.96V152.48C270.653 152.053 270.439 151.84 270.013 151.84H267.093V157.6ZM276.049 156.76V149.44H278.809V156.96C278.809 157.387 279.023 157.6 279.449 157.6H282.369V149.44H285.129V160H279.289C277.129 160 276.049 158.92 276.049 156.76ZM287.924 156.76V146.2H290.684V149.44H294.124V151.84H290.684V156.96C290.684 157.387 290.898 157.6 291.324 157.6H294.324V159.1L293.124 160H291.164C289.004 160 287.924 158.92 287.924 156.76ZM299.161 160C297.001 160 295.921 158.94 295.921 156.82C295.921 154.7 297.001 153.64 299.161 153.64H301.921V152.48C301.921 152.053 301.708 151.84 301.281 151.84H297.041V150.34L298.241 149.44H301.441C303.601 149.44 304.681 150.52 304.681 152.68V160H299.161ZM298.681 156.96C298.681 157.387 298.894 157.6 299.321 157.6H301.921V155.76H299.321C298.894 155.76 298.681 155.973 298.681 156.4V156.96ZM307.317 156.76V152.68C307.317 150.52 308.397 149.44 310.557 149.44H314.277L315.477 150.34V151.84H310.717C310.29 151.84 310.077 152.053 310.077 152.48V156.96C310.077 157.387 310.29 157.6 310.717 157.6H315.477V159.1L314.277 160H310.557C308.397 160 307.317 158.92 307.317 156.76ZM317.769 147.7V145H320.649V147.7H317.769ZM317.829 160V149.44H320.589V160H317.829ZM323.313 156.76V152.68C323.313 150.52 324.393 149.44 326.553 149.44H329.353C331.513 149.44 332.593 150.52 332.593 152.68V156.76C332.593 158.92 331.513 160 329.353 160H326.553C324.393 160 323.313 158.92 323.313 156.76ZM326.073 156.96C326.073 157.387 326.287 157.6 326.713 157.6H329.193C329.62 157.6 329.833 157.387 329.833 156.96V152.48C329.833 152.053 329.62 151.84 329.193 151.84H326.713C326.287 151.84 326.073 152.053 326.073 152.48V156.96ZM326.253 147.22L329.013 144.08L330.513 145.5L327.553 148.48L326.253 147.22ZM335.309 160V149.44H341.149C343.309 149.44 344.389 150.52 344.389 152.68V160H341.629V152.48C341.629 152.053 341.416 151.84 340.989 151.84H338.069V160H335.309Z" fill="black"/>
</svg>
