<svg width="388" height="220" viewBox="0 0 388 220" fill="none" xmlns="http://www.w3.org/2000/svg">
<path d="M129 212.745C128.542 212.668 127.693 212.528 127.114 212.435C121.679 211.56 120.059 200.991 124.592 195.987C127.952 192.278 137.951 192.21 136.937 195.903C136.649 196.95 136.561 197.006 135.565 196.789C126.588 194.827 121.442 203.183 127.982 209.102C128.835 209.873 134.019 210.065 134.733 209.351C135.64 208.444 137 209.492 137 211.097C137 212.076 131.614 213.185 129 212.745ZM146.5 212.645C137.788 211.5 137.152 195.815 145.731 193.675C152.492 191.988 157.322 195.556 157.612 202.451C157.916 209.679 153.658 213.585 146.5 212.645ZM151.661 209.193C156.184 206.025 153.805 195.929 148.541 195.955C143.348 195.981 141.211 205.261 145.54 208.991C146.8 210.076 150.238 210.19 151.661 209.193ZM206.667 212.648C202.513 212.019 202.193 211.246 202.053 201.535L201.938 193.618H203.613H205.287L205.394 201.067C205.513 209.405 205.527 209.456 207.791 209.796C211.818 210.4 212.317 209.308 212.327 199.868L212.334 193.618H214.038H215.741L215.587 200.868C215.353 211.886 213.94 213.749 206.667 212.648ZM259 212.735C250.351 211.692 250.166 196.044 258.776 193.752C263.017 192.623 267.522 193.481 267.461 195.408C267.409 197.043 267.238 197.153 265.485 196.684C262.652 195.927 259.156 196.366 258.064 197.618C255.274 200.813 255.46 206.03 258.47 209.041C259.2 209.77 262.177 210.082 264 209.619C264.825 209.41 265.818 209.16 266.207 209.064C266.933 208.885 267.907 210.626 267.473 211.328C266.881 212.287 262.002 213.097 259 212.735ZM285.105 212.656C276.697 211.588 275.997 196.227 284.244 193.745C292.447 191.276 298.467 198.253 295.722 207.046C295.039 209.233 292.498 212.141 291.026 212.42C289.182 212.769 286.756 212.866 285.105 212.656ZM289.861 209.416C294.86 207.044 292.886 195.981 287.459 195.955C282.458 195.932 279.975 204.981 283.954 208.725C285.342 210.032 287.926 210.334 289.861 209.416ZM39 203.078V193.538L44.2949 193.673C52.4655 193.881 54.8333 195.891 54.8333 202.618C54.8333 209.813 51.7059 212.545 43.4167 212.593L39 212.619V203.078ZM48.8667 208.675C51.2035 206.979 52.0823 202.396 50.6789 199.223C49.788 197.209 47.7246 196.29 44.0834 196.286L42.3334 196.285V202.951V209.618H44.95C47.2938 209.618 47.7022 209.52 48.8667 208.675ZM59 203.126V193.618H64.875H70.75L70.5417 194.66C70.4272 195.232 70.3335 195.832 70.3335 195.993C70.3335 196.153 68.5335 196.285 66.3335 196.285H62.3335V198.785V201.285H66.0002C69.5818 201.285 69.6668 201.304 69.6623 202.035C69.6472 204.235 69.5636 204.285 65.7946 204.285H62.3335V206.951V209.618H66.5193H70.7051L70.6027 211.035L70.5003 212.451L64.7503 212.542L59.0003 212.633L59 203.126ZM81.3333 203.118V193.618H82.8333H84.3333V201.618V209.618H89C94.0638 209.618 93.8673 209.532 93.4584 211.577L93.2501 212.618H87.2917H81.3334L81.3333 203.118ZM95.8198 211.702C95.9438 211.197 96.2601 210.349 96.5227 209.817C96.7854 209.285 97 208.626 97 208.353C97 208.08 97.675 206.15 98.5 204.065C99.325 201.979 100 200.088 100.001 199.862C100.001 199.636 100.499 198.177 101.107 196.618L102.213 193.785L104.38 193.688L106.548 193.591L107.941 197.406C108.707 199.504 109.333 201.416 109.333 201.653C109.333 201.891 109.993 203.893 110.8 206.102C111.606 208.311 112.365 210.689 112.485 211.386L112.704 212.654L110.961 212.553L109.219 212.452L108.249 209.535L107.278 206.619H104.166H101.054L100.567 208.202C100.299 209.073 99.9056 210.423 99.6931 211.202L99.3067 212.619H97.4507H95.5945L95.8198 211.702ZM106.333 203.536C106.333 202.97 104.642 197.849 104.348 197.524C104.218 197.381 103.848 198.206 103.525 199.358C103.201 200.509 102.738 202.014 102.495 202.701L102.054 203.952H104.193C105.68 203.952 106.333 203.825 106.333 203.536ZM161.003 212.535C161.003 212.489 161.228 210.577 161.5 208.285C161.772 205.993 161.996 203.261 161.997 202.213C161.997 201.166 162.172 198.797 162.382 196.949L162.764 193.589L164.762 193.687L166.761 193.785L167.574 196.285C168.802 200.061 169.551 202.229 170.454 204.618L171.273 206.785L171.651 205.785C171.859 205.235 172.531 203.51 173.144 201.951C173.757 200.393 174.689 197.918 175.214 196.451L176.17 193.785L178.206 193.687L180.241 193.589L180.45 194.854C180.565 195.549 180.665 197.393 180.673 198.952C180.681 200.51 180.903 203.96 181.167 206.618C181.431 209.277 181.651 211.714 181.657 212.035C181.664 212.512 181.371 212.618 180.042 212.618C178.03 212.618 178.064 212.736 177.771 204.692C177.536 198.237 177.683 198.299 175.513 203.744C174.864 205.371 174.333 206.875 174.333 207.087C174.333 207.298 173.893 208.517 173.355 209.795C171.727 213.663 168.333 212.615 168.333 208.244C168.333 207.616 165.745 200.674 165.33 200.187C165.206 200.042 165.006 201.917 164.887 204.354C164.768 206.791 164.573 209.648 164.455 210.702L164.24 212.618H162.62C161.729 212.618 161.001 212.58 161.003 212.535ZM186.333 203.075V193.533L190.944 193.68C197.136 193.877 198.667 194.984 198.667 199.262C198.667 203.216 196.61 205.189 192.136 205.528L189.667 205.714V209.166V212.618H188H186.333V203.075ZM193.824 202.155C196.826 200.188 195.004 196.287 191.083 196.285L189.667 196.285V199.665V203.044L191.376 202.842C192.315 202.731 193.417 202.421 193.824 202.155ZM224.222 212.396C224.1 212.274 224 208.599 224 204.229V196.285H221.167H218.333V194.952V193.618H225.833H233.333V194.952V196.285H230.333H227.333V204.452V212.618H225.889C225.094 212.618 224.344 212.518 224.222 212.396ZM233.333 212.12C233.333 211.847 234.083 209.716 235 207.386C235.917 205.056 236.667 202.959 236.667 202.726C236.667 202.494 237.342 200.645 238.167 198.618C238.992 196.591 239.667 194.63 239.667 194.261C239.667 193.64 239.85 193.596 242.064 193.687L244.461 193.785L245.286 196.451C245.74 197.918 246.616 200.442 247.233 202.06C247.85 203.677 248.573 205.838 248.839 206.86C249.105 207.882 249.625 209.527 249.995 210.514C250.364 211.502 250.667 212.379 250.667 212.464C250.667 212.549 249.786 212.618 248.71 212.618H246.753L246.343 211.035C246.117 210.164 245.748 208.851 245.522 208.118L245.111 206.785H242.002H238.894L237.864 209.701L236.833 212.616L235.083 212.617C233.753 212.618 233.333 212.499 233.333 212.12ZM244 203.82C244 203.748 243.715 202.735 243.366 201.57C243.018 200.405 242.624 198.851 242.49 198.118C242.357 197.385 242.173 197.01 242.081 197.285C241.989 197.56 241.409 199.094 240.79 200.694C240.172 202.295 239.667 203.682 239.667 203.778C239.667 203.873 240.642 203.952 241.833 203.952C243.025 203.952 244 203.892 244 203.82ZM271 203.118V193.618H272.833H274.667V203.118V212.618H272.833H271V203.118ZM300.333 203.118V193.618H301.82C303.298 193.618 304.667 194.501 304.667 195.454C304.667 195.662 305.164 196.421 305.771 197.141C306.378 197.862 307.595 199.535 308.476 200.859C309.356 202.183 310.284 203.439 310.538 203.65C310.792 203.861 311.001 204.202 311.002 204.409C311.002 204.616 311.372 205.235 311.823 205.785L312.643 206.785L312.654 200.202L312.665 193.618H314.165H315.665V203.118V212.618H314.182C312.723 212.618 310.999 211.217 310.999 210.031C310.999 209.835 310.871 209.624 310.715 209.563C310.472 209.467 309.018 207.436 305.503 202.285C305.065 201.643 304.403 200.743 304.031 200.285L303.356 199.451L303.345 206.035L303.333 212.618H301.833H300.333L300.333 203.118ZM286.333 192.139C286.333 190.382 288.143 188.639 289.979 188.629L291.791 188.617L290.936 187.701C288.415 184.998 288.232 177.604 290.606 174.426C293.366 170.733 300.167 169.306 303.476 171.725C304.013 172.118 303.758 174.617 303.181 174.617C303.126 174.617 302.506 174.377 301.804 174.084C295.986 171.653 290.869 176.834 292.674 183.33C293.621 186.741 298.884 188.79 301.538 186.781C302.532 186.028 304 187.05 304 188.496C304 189.162 300.228 190.366 298.019 190.405C295.56 190.45 292.333 189.626 292.333 188.954C292.333 188.803 291.455 189.565 290.382 190.648C288.4 192.648 286.333 193.41 286.333 192.139ZM231.333 190.292C220.464 187.973 222.082 170.619 233.167 170.619C244.659 170.619 245.598 189.17 234.167 190.367C233.25 190.463 231.975 190.429 231.333 190.292ZM235.288 187.141C237.98 185.749 239.399 181.112 238.186 177.673C236.29 172.3 230.64 171.933 228.326 177.032C225.756 182.693 230.519 189.608 235.288 187.141ZM354.5 190.473C354.317 190.399 353.638 190.252 352.993 190.145C345.716 188.937 344.919 175.094 351.932 171.704C355.167 170.14 362 170.547 362 172.303C362 174.067 361.456 174.583 360.104 174.1C356.163 172.695 352.125 174.205 351.185 177.436C349.258 184.066 353.314 189.181 358.833 187.081C361.183 186.187 361.149 186.185 361.576 187.315C362.285 189.193 357.093 191.509 354.5 190.473ZM39 180.421V170.89L43.9167 171.004C50.1893 171.149 52.1278 171.923 53.8127 174.951C56.1211 179.101 54.8429 186.117 51.4031 188.178C48.8014 189.736 48.0563 189.899 43.4167 189.926L39 189.952V180.421ZM48.6915 186.113C54.1538 182.233 51.5866 174.142 44.75 173.69L42.3334 173.531V180.444V187.358L44.8123 187.233C46.9153 187.126 47.5037 186.957 48.6915 186.113ZM58 180.451V170.951H63.8722H69.7444L69.5434 171.701C69.433 172.114 69.3404 172.714 69.3378 173.035C69.334 173.558 68.9188 173.618 65.3332 173.618H61.3332V176.118V178.618H64.9802C68.9555 178.618 69.1387 178.705 68.8123 180.446L68.5923 181.618H64.9627H61.3332V184.451V187.285H65.4998C70.0196 187.285 69.9757 187.262 69.4564 189.201C69.258 189.942 69.182 189.951 63.6277 189.951H57.9998L58 180.451ZM72.3333 180.451V170.951H76.4402C82.8205 170.951 84.9721 172.409 84.995 176.746C85.0139 180.653 82.9578 182.571 78.4167 182.876L76 183.039V186.495V189.952H74.1667H72.3333V180.451ZM80.3286 179.341C82.8615 177.456 81.3072 173.976 77.8026 173.685L76 173.535V176.956V180.378L77.7453 180.171C78.7052 180.057 79.8677 179.684 80.3286 179.341ZM84.6678 189.535C84.6678 189.306 85.1319 187.993 85.6977 186.618C86.2635 185.243 87.2981 182.468 87.9969 180.451C88.6956 178.435 89.7167 175.51 90.2659 173.951L91.2646 171.118H93.5244H95.7841L96.4353 173.118C96.7936 174.218 97.7165 176.993 98.4864 179.285C99.2564 181.576 100.276 184.651 100.753 186.118C101.229 187.585 101.721 189.047 101.845 189.368C102.045 189.883 101.841 189.951 100.099 189.951H98.1262L97.5865 188.035C97.2898 186.981 96.9571 185.7 96.8474 185.19L96.6479 184.261L93.4377 184.356L90.2275 184.451L89.197 187.198L88.1666 189.944L86.4166 189.948C85.2362 189.95 84.6671 189.816 84.6678 189.535ZM94.9624 179.701C94.5947 178.647 94.1039 177.057 93.8716 176.167L93.4491 174.55L92.3413 177.667C91.732 179.382 91.1649 180.972 91.0811 181.201C90.9685 181.51 91.5399 181.618 93.2797 181.618H95.6308L94.9624 179.701ZM104.333 180.451V170.951L108.583 170.959C114.721 170.97 116.623 172.044 117.189 175.82C117.484 177.782 115.602 181.618 114.346 181.618C113.972 181.618 116.375 187.273 117.304 188.576C118.271 189.936 118.255 189.952 115.893 189.952H113.786L113.037 188.202C110.638 182.589 110.657 182.618 109.272 182.618H108V186.285V189.952H106.167H104.333V180.451ZM112.723 178.664C114.766 176.377 113.204 173.618 109.866 173.618H108V176.826V180.034L109.889 179.877C111.489 179.745 111.923 179.559 112.723 178.664ZM124.333 181.785V173.618H121.5H118.667V172.285V170.951H126.167C134.367 170.951 133.996 170.854 133.457 172.868C133.268 173.57 133.077 173.618 130.461 173.618H127.667V181.785V189.951H126H124.333V181.785ZM132.333 189.597C132.333 189.402 132.624 188.539 132.978 187.68C133.666 186.012 135.485 180.921 137.049 176.285C138.892 170.821 138.792 170.951 141.14 170.951H143.178L144.923 175.701C145.883 178.314 146.668 180.643 146.667 180.876C146.667 181.11 147.342 183.126 148.167 185.357C150.012 190.348 150.042 190.005 147.77 189.885L145.874 189.785L144.978 187.118L144.083 184.451H140.791C137.529 184.451 137.499 184.459 137.403 185.285C137.35 185.743 136.994 186.98 136.612 188.035L135.919 189.951H134.126C133.081 189.951 132.333 189.804 132.333 189.597ZM143.245 181.201C143.157 180.972 142.675 179.546 142.173 178.032C141.158 174.97 140.778 174.477 140.496 175.855C140.391 176.366 139.943 177.872 139.5 179.202L138.694 181.618H141.049C142.796 181.618 143.363 181.51 143.245 181.201ZM151.791 189.368C151.884 189.047 152.127 186.76 152.33 184.285C152.533 181.81 152.88 177.835 153.1 175.451L153.5 171.118H155.482H157.464L158.283 173.618C160.285 179.731 161.846 183.904 162.05 183.687C162.172 183.557 162.67 182.476 163.157 181.285C163.643 180.093 164.244 178.668 164.491 178.118C164.738 177.568 165.118 176.443 165.335 175.618C165.551 174.793 166.033 173.406 166.406 172.535L167.082 170.951H169.002C171.279 170.951 171.32 171.024 171.333 175.118C171.337 176.585 171.564 180.185 171.836 183.118C172.529 190.594 172.637 189.951 170.695 189.951H169.057L168.815 187.368C168.681 185.947 168.481 182.915 168.37 180.63L168.167 176.474L166.753 179.976C165.976 181.902 165.111 184.245 164.833 185.184C164.554 186.122 164.104 187.316 163.832 187.837C163.56 188.358 163.337 188.972 163.336 189.201C163.336 189.471 162.818 189.618 161.874 189.618H160.415L159.749 187.701C159.383 186.647 158.849 185.035 158.562 184.118C158.276 183.201 157.622 181.326 157.11 179.951L156.177 177.452L155.611 183.285C155.299 186.493 155.035 189.306 155.022 189.535C155.007 189.81 154.428 189.951 153.311 189.951C151.86 189.951 151.646 189.869 151.791 189.368ZM176 180.459V170.951H181.875H187.75L187.542 171.993C187.427 172.566 187.334 173.166 187.334 173.327C187.334 173.487 185.533 173.618 183.333 173.618H179.334V176.118V178.618H182.98C186.974 178.618 187.181 178.717 186.851 180.473L186.637 181.618H182.985H179.334V184.452V187.285H183.52H187.707L187.604 188.535L187.5 189.785L181.75 189.876L176 189.967L176 180.459ZM190.667 180.452V170.952H192.111C193.661 170.952 195.778 172.799 196.216 174.535C196.321 174.948 196.52 175.285 196.661 175.285C196.801 175.285 197.682 176.448 198.618 177.868C199.554 179.289 200.714 180.902 201.195 181.452C201.676 182.002 202.241 182.827 202.452 183.285C202.757 183.951 202.852 182.797 202.924 177.535L203.014 170.952H204.507H206V180.47V189.988L204.425 189.887C203.172 189.806 202.772 189.629 202.471 189.023C202.263 188.603 201.793 187.928 201.426 187.523C201.059 187.117 199.991 185.633 199.052 184.225C198.112 182.816 197.189 181.569 197 181.452C196.811 181.335 196.441 180.762 196.177 180.179C195.914 179.596 195.241 178.599 194.682 177.964L193.667 176.81V183.381V189.952H192.167H190.667L190.667 180.452ZM214.333 181.785V173.618H211.5H208.667V172.285V170.952H216.202C222.937 170.952 223.717 171.008 223.536 171.479C223.425 171.769 223.333 172.369 223.333 172.812C223.333 173.602 223.275 173.618 220.5 173.618H217.667V181.785V189.952H216H214.333L214.333 181.785ZM250.667 180.421V170.891L255.583 171.026C264.026 171.258 266.501 173.32 266.499 180.118C266.495 187.167 263.277 189.952 255.132 189.952H250.667V180.421ZM259.693 186.511C265.854 183.252 263.545 174.143 256.442 173.688L254 173.531V180.408V187.285H256.114C257.684 187.285 258.606 187.086 259.693 186.511ZM269.667 180.452V170.952H275.539H281.411L281.21 171.702C281.1 172.114 281.007 172.714 281.004 173.035C281.001 173.558 280.585 173.618 277 173.618H273V176.118V178.618H276.667C280.638 178.618 280.529 178.557 280.125 180.577L279.917 181.618H276.458H273V184.452V187.285H277.167C281.686 187.285 281.642 187.262 281.123 189.202C280.925 189.942 280.849 189.952 275.294 189.952H269.667L269.667 180.452ZM306.667 180.452V170.952H308.333H310V180.452V189.952H308.333H306.667V180.452ZM314 180.452V170.952H319.833H325.667V171.758C325.667 173.574 325.562 173.618 321.298 173.618H317.333V176.118V178.618H321H324.667V180.118V181.618H321H317.333V184.452V187.285H321.702C325.549 187.285 326.047 187.348 325.869 187.812C325.758 188.102 325.667 188.702 325.667 189.146V189.952H319.833H314L314 180.452ZM328.667 180.452V170.952H330.262C331.712 170.952 331.912 171.05 332.474 172.035C332.814 172.631 333.634 173.793 334.296 174.618C334.958 175.443 335.786 176.681 336.136 177.368C336.485 178.056 336.879 178.618 337.01 178.618C337.142 178.618 338.056 179.847 339.041 181.349L340.833 184.079L340.924 177.515L341.014 170.952H342.674H344.333V180.452V189.952H342.689C341.212 189.952 340.969 189.842 340.289 188.868C339.873 188.273 339.45 187.71 339.349 187.618C339.248 187.527 338.965 187.063 338.721 186.587C338.477 186.112 337.764 185.147 337.138 184.444C336.512 183.74 336 183.048 336 182.906C336 182.765 335.287 181.684 334.417 180.504C333.546 179.324 332.655 178.08 332.436 177.739C332.121 177.246 332.035 178.44 332.02 183.535L332.001 189.952H330.334H328.667L328.667 180.452ZM364.667 180.452V170.952H366.333H368V180.452V189.952H366.333H364.667V180.452ZM370.667 189.523C370.667 189.286 371.192 187.83 371.833 186.285C372.475 184.741 373 183.286 373 183.052C373 182.818 373.725 180.712 374.612 178.372C375.499 176.033 376.45 173.443 376.727 172.618L377.229 171.118H379.522H381.816L382.366 173.118C382.668 174.218 383.484 176.768 384.179 178.785C385.773 183.409 387.712 188.99 387.916 189.535C388.029 189.839 387.532 189.952 386.072 189.952C384.167 189.952 384.062 189.908 383.849 189.035C383.727 188.531 383.315 187.256 382.935 186.202L382.244 184.285H379.122C376.991 184.285 376 184.407 376 184.669C376 184.879 375.587 186.153 375.083 187.498L374.167 189.945L372.417 189.948C371.21 189.951 370.667 189.819 370.667 189.523ZM380.564 178.452C379.304 174.624 379.394 174.64 378.202 178.036C377.671 179.548 377.167 180.973 377.083 181.202C376.969 181.51 377.537 181.618 379.268 181.618H381.608L380.564 178.452ZM223.667 152.07C213.704 151.148 204.964 148.657 197.833 144.707C194.686 142.964 193 141.888 193 141.623C193 141.477 192.647 141.269 192.216 141.161C191.784 141.052 190.847 140.361 190.132 139.625C189.418 138.888 188.703 138.286 188.544 138.285C188.038 138.285 181.033 130.837 180.635 129.875C180.424 129.367 180.131 128.952 179.983 128.952C179.835 128.952 179.008 127.789 178.145 126.368C177.282 124.948 176.306 123.391 175.975 122.909C175.155 121.715 171.702 113.865 171.167 111.979C170.928 111.139 170.261 108.877 169.685 106.952C169.108 105.027 168.494 102.402 168.321 101.118C168.148 99.8351 167.783 97.3601 167.51 95.6184C165.39 82.088 166.788 62.4547 170.56 52.8052C170.985 51.7163 171.333 50.5612 171.333 50.2383C171.333 49.3793 175.172 41.141 176.515 39.1173C177.149 38.1633 177.667 37.2215 177.667 37.0244C177.667 36.8273 177.858 36.4678 178.091 36.2256C178.325 35.9833 179.318 34.6601 180.297 33.2851C182.328 30.4339 182.577 30.1491 186.407 26.2851C190.587 22.0675 194.63 18.8747 197.957 17.1624C198.622 16.82 199.242 16.4325 199.333 16.3013C199.716 15.7545 209.975 10.9518 210.761 10.9518C210.994 10.9518 212.322 10.5804 213.712 10.1266C218.145 8.67859 220.04 8.28545 225.833 7.61174C232.071 6.88633 240.715 6.74505 245.333 7.29301C246.892 7.47791 249.592 7.77401 251.333 7.95099C253.075 8.12798 256.15 8.73925 258.167 9.30943C260.183 9.8796 262.837 10.6307 264.063 10.9786C266.763 11.7447 275.394 15.6385 275.825 16.2851C275.886 16.3768 275.43 19.6018 274.811 23.4518C274.193 27.3018 273.682 31.0168 273.677 31.7073C273.665 33.1475 272.394 41.3352 272.143 41.5863C272.051 41.678 270.819 41.1767 269.405 40.4722C267.991 39.7678 266.383 39.0778 265.833 38.9389C265.283 38.8001 263.117 38.0749 261.019 37.3275C258.921 36.5801 256.221 35.8209 255.019 35.6405C253.817 35.46 251.483 35.0803 249.833 34.7967C242.548 33.5445 233.43 33.5504 228.5 34.8103C227.4 35.0915 225.975 35.4424 225.333 35.5901C224.692 35.7378 223.717 36.0587 223.167 36.3032C204.785 44.4744 196.404 67.4084 201.856 94.6184C202.406 97.3656 204.454 103.46 205.043 104.102C205.203 104.276 205.334 104.651 205.335 104.935C205.343 106.792 210.563 113.735 215 117.787C217.766 120.314 223.435 122.969 229.333 124.5C236.971 126.482 253.367 124.515 261.94 120.584C263.098 120.053 264.211 119.618 264.411 119.618C264.612 119.618 265.896 119.004 267.265 118.253C270.187 116.649 270.202 116.658 270.489 120.269C270.658 122.399 272.672 137.667 273.195 140.785C273.355 141.741 273.254 141.839 270.931 143C266.186 145.371 263.801 146.299 256.666 148.55C247.701 151.379 233.065 152.94 223.667 152.07ZM333.667 151.922C331.252 151.654 327.068 150.971 323.398 150.245C320.987 149.769 312.247 146.49 310.363 145.355C309.522 144.848 308.458 144.27 308 144.071C307.542 143.871 306.453 143.163 305.58 142.497C304.708 141.83 303.847 141.285 303.667 141.285C303.011 141.285 292.668 131.525 292.667 130.905C292.667 130.787 292.068 129.967 291.336 129.081C290.605 128.196 289.772 127.017 289.486 126.462C289.2 125.906 288.526 124.777 287.989 123.952C287.451 123.127 286.838 122.077 286.626 121.619C286.415 121.16 285.649 119.524 284.925 117.983C283.515 114.981 280.902 107.257 280.356 104.477C279.907 102.192 279.067 97.2693 278.673 94.6186C276.71 81.4024 278.244 62.2707 282.062 52.3474C282.578 51.0065 283 49.6787 283 49.3968C283 48.6664 286.556 41.1343 287.93 38.9519C290.587 34.7356 292.915 31.4066 294.167 30.0368C297.223 26.6905 300.57 23.2852 300.802 23.2852C300.939 23.2852 301.496 22.8406 302.039 22.2972C302.583 21.7538 304.067 20.6116 305.338 19.759C306.609 18.9063 307.821 18.0009 308.032 17.747C308.243 17.493 308.601 17.2852 308.828 17.2852C309.055 17.2852 309.824 16.8855 310.537 16.3968C312.068 15.3475 321.456 10.9519 322.166 10.9519C322.436 10.9519 323.971 10.5162 325.578 9.98374C333.083 7.49702 347.255 6.24446 356.333 7.26563C358.258 7.48215 361.183 7.79723 362.833 7.96578C364.483 8.13435 367.483 8.74064 369.5 9.31315C371.517 9.88566 373.992 10.579 375 10.8538C380.486 12.349 387.374 15.9625 387.147 17.2259C386.439 21.1643 385.333 28.8037 385.333 29.7529C385.333 31.0868 383.724 41.3394 383.475 41.5879C383.385 41.6777 382.304 41.2503 381.073 40.6382C377.875 39.049 369.037 36.0424 366.402 35.6475C365.173 35.4633 362.817 35.0805 361.167 34.7968C353.832 33.5361 344.623 33.5491 339.833 34.8267C338.733 35.1202 337.308 35.4724 336.667 35.6095C328.095 37.4406 316.277 50.4193 314.199 60.2851C314.102 60.7434 313.648 62.6934 313.19 64.6184C310.102 77.589 311.388 93.5426 316.378 104.151C316.903 105.268 317.333 106.278 317.333 106.394C317.333 106.51 317.896 107.456 318.583 108.494C319.271 109.533 320.133 110.877 320.5 111.48C321.101 112.468 324.169 115.784 326.333 117.784C329.05 120.294 335.351 123.185 341.333 124.665C343.739 125.26 355.277 125.273 358.5 124.684C367.07 123.118 372.058 121.508 378.465 118.242C381.591 116.649 381.45 116.529 381.963 121.231C382.348 124.764 384.266 139.36 384.555 140.952C384.689 141.69 384.466 141.908 382.603 142.857C368.555 150.015 349.05 153.628 333.667 151.922ZM39 79.4511V9.28442L64.25 9.29236C89.0425 9.3003 103.038 9.62498 107.333 10.2919C108.525 10.4769 110.625 10.766 112 10.9343C113.375 11.1025 116.075 11.7816 118 12.4432C119.925 13.1049 122.068 13.7918 122.762 13.9696C123.456 14.1474 125.3 14.966 126.859 15.7886C128.419 16.6112 129.837 17.2843 130.011 17.2843C130.185 17.2843 131.313 17.9593 132.518 18.7843C133.723 19.6093 134.833 20.2843 134.985 20.2843C135.137 20.2843 136.012 20.9593 136.93 21.7843C137.847 22.6093 138.759 23.2843 138.956 23.2843C139.152 23.2843 139.645 23.7326 140.05 24.2804C140.455 24.8283 141.359 25.6737 142.06 26.1591C142.76 26.6445 143.333 27.2126 143.333 27.4215C143.333 27.6304 144.083 28.5289 145 29.4181C145.917 30.3074 146.667 31.1854 146.667 31.3692C146.667 31.5531 147.165 32.2554 147.775 32.9299C148.384 33.6045 149.52 35.2727 150.298 36.637C154.211 43.4931 155.265 46.1699 157.707 55.451C160.637 66.5908 160.218 88.9614 156.86 100.693C156.426 102.21 155.963 103.976 155.83 104.618C155.61 105.69 154.618 108.322 153.507 110.784C153.259 111.334 152.653 112.797 152.159 114.034C151.666 115.272 151.151 116.284 151.015 116.284C150.879 116.284 150.487 116.922 150.143 117.701C149.8 118.48 148.989 119.927 148.343 120.917C147.696 121.906 146.867 123.203 146.5 123.799C145.826 124.894 144.928 125.994 141.749 129.618C139.376 132.323 133.91 137.178 132.257 138.049C131.837 138.27 130.97 138.846 130.33 139.328C128.695 140.56 122.915 143.562 120.333 144.52C113.877 146.914 112.468 147.306 107.5 148.088C98.649 149.482 95.0019 149.618 66.2849 149.618H39V79.4511ZM97.6494 122.916C105.422 121.913 112.04 117.908 117.323 111.012C118.853 109.014 121.012 104.967 121.978 102.284C123.741 97.3933 124.767 93.7355 125.017 91.456C125.178 89.9866 125.464 87.5094 125.652 85.9511C126.078 82.4286 126.085 72.2457 125.663 69.1178C125.49 67.8344 125.196 65.4865 125.008 63.9002C124.813 62.2473 124.187 59.6857 123.543 57.9002C122.924 56.1865 122.228 54.2594 121.996 53.6178C121.286 51.6548 121.05 51.1987 119.516 48.8194C116.743 44.5218 111.613 40.1259 107.666 38.665C99.7715 35.743 98.8039 35.6178 84.1227 35.6178H71.9997V79.4511V123.284H83.399C89.7716 123.284 96.0558 123.122 97.6494 122.916Z" fill="black"/>
<path d="M0 109.784V0.284416H10.3333H20.6667V109.784V219.284H10.3333H0V109.784Z" fill="#0060C9"/>
</svg>
